<svg xmlns="http://www.w3.org/2000/svg" viewBox="0 0 480.8 56.16"><path d="M199,174.48h7.5v42.84H199Z" transform="translate(-198.99 -173.46)" style="fill:#fff"/><path d="M213.73,186.3h6.48v4.32h.18a17.56,17.56,0,0,1,1.68-2.1,9.17,9.17,0,0,1,2-1.62,10.17,10.17,0,0,1,2.55-1.05,12.66,12.66,0,0,1,3.3-.39,11.24,11.24,0,0,1,5.25,1.26,7.13,7.13,0,0,1,3.45,3.9,13.81,13.81,0,0,1,4-3.78,10.84,10.84,0,0,1,5.7-1.38q4.92,0,7.65,2.4t2.73,8v21.42h-6.84V199.2q0-1.86-.12-3.39a6.92,6.92,0,0,0-.69-2.64,3.92,3.92,0,0,0-1.71-1.71,6.76,6.76,0,0,0-3.12-.6q-3.48,0-5,2.16a10.33,10.33,0,0,0-1.56,6.12v18.18h-6.84V197.4a8.44,8.44,0,0,0-1.17-4.89q-1.17-1.65-4.29-1.65a6.28,6.28,0,0,0-2.55.54,6.36,6.36,0,0,0-2.16,1.56,7.81,7.81,0,0,0-1.5,2.52,9.58,9.58,0,0,0-.57,3.42v18.42h-6.84Z" transform="translate(-198.99 -173.46)" style="fill:#fff"/><path d="M291.17,210.42a3.63,3.63,0,0,0,.33,1.8,1.39,1.39,0,0,0,1.29.54h.72a4.48,4.48,0,0,0,1-.12v4.74q-.36.12-.93.27t-1.17.27q-.6.12-1.2.18t-1,.06a6.59,6.59,0,0,1-3.48-.84,4.18,4.18,0,0,1-1.8-2.94,12.1,12.1,0,0,1-5,2.88,19.73,19.73,0,0,1-5.73.9,14.05,14.05,0,0,1-4-.57,10.55,10.55,0,0,1-3.39-1.68,8.05,8.05,0,0,1-2.34-2.82,8.69,8.69,0,0,1-.87-4,9.21,9.21,0,0,1,1.05-4.68,7.78,7.78,0,0,1,2.76-2.82,12.46,12.46,0,0,1,3.84-1.47q2.13-.45,4.29-.69a35.1,35.1,0,0,1,3.54-.51,16.61,16.61,0,0,0,3-.51,4.55,4.55,0,0,0,2-1.11,3.06,3.06,0,0,0,.75-2.25,3.5,3.5,0,0,0-.63-2.16,4.23,4.23,0,0,0-1.56-1.29,6.74,6.74,0,0,0-2.07-.6,16.59,16.59,0,0,0-2.16-.15,8.59,8.59,0,0,0-4.74,1.2,4.68,4.68,0,0,0-2.1,3.72h-6.84a10.3,10.3,0,0,1,1.44-5,10,10,0,0,1,3.21-3.18,13.13,13.13,0,0,1,4.41-1.68,26.26,26.26,0,0,1,5-.48,21.23,21.23,0,0,1,4.5.48,12.78,12.78,0,0,1,4,1.56,8.64,8.64,0,0,1,2.85,2.79,7.66,7.66,0,0,1,1.08,4.17Zm-6.84-8.64a8.3,8.3,0,0,1-3.84,1.23q-2.28.21-4.56.63a14.62,14.62,0,0,0-2.1.51,6.32,6.32,0,0,0-1.8.9,4,4,0,0,0-1.23,1.5,5.13,5.13,0,0,0-.45,2.25,2.87,2.87,0,0,0,.66,1.92A4.79,4.79,0,0,0,272.6,212a7.36,7.36,0,0,0,2,.63,12.66,12.66,0,0,0,2,.18,11.14,11.14,0,0,0,2.46-.3,8.18,8.18,0,0,0,2.49-1,6.56,6.56,0,0,0,1.95-1.83,4.63,4.63,0,0,0,.78-2.73Z" transform="translate(-198.99 -173.46)" style="fill:#fff"/><path d="M326.35,215.7q0,7-3.93,10.47t-11.31,3.45a23.68,23.68,0,0,1-4.71-.48,14,14,0,0,1-4.32-1.62,10.41,10.41,0,0,1-3.27-3,9.12,9.12,0,0,1-1.56-4.56h6.84a5.48,5.48,0,0,0,1,2.34,5.25,5.25,0,0,0,1.71,1.41,6.5,6.5,0,0,0,2.19.66,20.32,20.32,0,0,0,2.52.15q4.14,0,6.06-2a8.26,8.26,0,0,0,1.92-5.88v-4.74h-.12a10.4,10.4,0,0,1-3.93,4,10.55,10.55,0,0,1-5.37,1.44,14.17,14.17,0,0,1-6.33-1.29,12,12,0,0,1-4.32-3.54A14.71,14.71,0,0,1,297,207.3a24.49,24.49,0,0,1-.78-6.3,18.31,18.31,0,0,1,1-5.94,15.14,15.14,0,0,1,2.76-4.95,13.22,13.22,0,0,1,4.41-3.39,13.42,13.42,0,0,1,5.91-1.26,11.9,11.9,0,0,1,5.4,1.23,8.35,8.35,0,0,1,3.78,3.87h.12V186.3h6.84Zm-15.18-3.78a7.26,7.26,0,0,0,6.45-3.39,10.83,10.83,0,0,0,1.44-3.48,17.42,17.42,0,0,0,.45-3.93,15.31,15.31,0,0,0-.48-3.84,10.32,10.32,0,0,0-1.47-3.3A7.1,7.1,0,0,0,315,191.7a8.06,8.06,0,0,0-3.81-.84,7.2,7.2,0,0,0-3.84,1,7.69,7.69,0,0,0-2.52,2.49,10.74,10.74,0,0,0-1.38,3.48,18.34,18.34,0,0,0-.42,3.87,14.72,14.72,0,0,0,.48,3.75,10.36,10.36,0,0,0,1.47,3.27,7.84,7.84,0,0,0,2.52,2.34A7.16,7.16,0,0,0,311.17,211.92Z" transform="translate(-198.99 -173.46)" style="fill:#fff"/><path d="M332.66,174.48h6.84V181h-6.84Zm0,11.82h6.84v31h-6.84Z" transform="translate(-198.99 -173.46)" style="fill:#fff"/><path d="M345.94,186.3h6.48v4.56l.12.12a11.47,11.47,0,0,1,4.08-4,10.87,10.87,0,0,1,5.58-1.47q5.1,0,8,2.64t2.94,7.92v21.3h-6.84v-19.5q-.12-3.66-1.56-5.31a5.67,5.67,0,0,0-4.5-1.65,7.43,7.43,0,0,0-3.12.63,6.77,6.77,0,0,0-2.34,1.74,8.18,8.18,0,0,0-1.5,2.61,9.32,9.32,0,0,0-.54,3.18v18.3h-6.84Z" transform="translate(-198.99 -173.46)" style="fill:#fff"/><path d="M393.69,218.16a16.89,16.89,0,0,1-6.63-1.23,14.14,14.14,0,0,1-4.92-3.39,14.5,14.5,0,0,1-3.06-5.16,21.08,21.08,0,0,1,0-13.14,14.5,14.5,0,0,1,3.06-5.16,14.14,14.14,0,0,1,4.92-3.39,18.48,18.48,0,0,1,13.26,0,14.14,14.14,0,0,1,4.92,3.39,14.5,14.5,0,0,1,3.06,5.16,21.08,21.08,0,0,1,0,13.14,14.5,14.5,0,0,1-3.06,5.16,14.14,14.14,0,0,1-4.92,3.39A16.89,16.89,0,0,1,393.69,218.16Zm0-5.4a7.85,7.85,0,0,0,4-1,8.34,8.34,0,0,0,2.76-2.52,11,11,0,0,0,1.59-3.51,15.75,15.75,0,0,0,0-8,10.61,10.61,0,0,0-1.59-3.51,8.48,8.48,0,0,0-2.76-2.49,8.65,8.65,0,0,0-7.92,0,8.48,8.48,0,0,0-2.76,2.49,10.61,10.61,0,0,0-1.59,3.51,15.75,15.75,0,0,0,0,8,11,11,0,0,0,1.59,3.51,8.34,8.34,0,0,0,2.76,2.52A7.85,7.85,0,0,0,393.69,212.76Z" transform="translate(-198.99 -173.46)" style="fill:#fff"/><path d="M414.27,186.3h6.42v6h.12a6.92,6.92,0,0,1,1.17-2.46,11.41,11.41,0,0,1,2.1-2.19,10.61,10.61,0,0,1,2.73-1.59,8.19,8.19,0,0,1,3.07-.6,14.75,14.75,0,0,1,1.64.06l.94.12v6.6c-.49-.08-1-.15-1.48-.21a12.21,12.21,0,0,0-1.47-.09,7.78,7.78,0,0,0-3.26.69,7.34,7.34,0,0,0-2.67,2,9.84,9.84,0,0,0-1.81,3.33,14.41,14.41,0,0,0-.66,4.56v14.76h-6.84Z" transform="translate(-198.99 -173.46)" style="fill:#fff"/><path d="M458,203a9.59,9.59,0,0,0,.83,4.2,7.59,7.59,0,0,0,2.34,2.85,10,10,0,0,0,3.45,1.62,16.68,16.68,0,0,0,4.23.51,13.58,13.58,0,0,0,4.2-.57,8.5,8.5,0,0,0,2.82-1.47,5.31,5.31,0,0,0,1.56-2.07,6.21,6.21,0,0,0,.49-2.37,5.12,5.12,0,0,0-1.12-3.63,6.34,6.34,0,0,0-2.43-1.65,50.82,50.82,0,0,0-5.31-1.59q-3-.75-7.47-2A16,16,0,0,1,457,195a11,11,0,0,1-2.91-2.61,9.17,9.17,0,0,1-1.53-3.06,12.27,12.27,0,0,1-.45-3.3,11.15,11.15,0,0,1,1.35-5.61,12,12,0,0,1,3.57-3.93,15.7,15.7,0,0,1,5-2.31,22.09,22.09,0,0,1,5.7-.75,22.41,22.41,0,0,1,6.33.87,15.61,15.61,0,0,1,5.22,2.61,12.38,12.38,0,0,1,4.89,10.2h-7.5q-.3-4.14-2.82-5.85a11.2,11.2,0,0,0-6.42-1.71,14,14,0,0,0-2.7.27,8.58,8.58,0,0,0-2.52.9,5.53,5.53,0,0,0-1.89,1.71,5.23,5.23,0,0,0,.66,6.27,9.13,9.13,0,0,0,3.69,2l1.89.51,3.69,1,4,1L477,194a12.5,12.5,0,0,1,3.66,1.8,11.54,11.54,0,0,1,2.61,2.61,10.78,10.78,0,0,1,1.56,3.15,11.53,11.53,0,0,1,.52,3.36,12.12,12.12,0,0,1-1.48,6.15,12.48,12.48,0,0,1-3.87,4.17,16.82,16.82,0,0,1-5.46,2.37,26.12,26.12,0,0,1-6.24.75,25.68,25.68,0,0,1-6.9-.9,16.15,16.15,0,0,1-5.64-2.76,13.48,13.48,0,0,1-3.83-4.77,15.6,15.6,0,0,1-1.5-6.87Z" transform="translate(-198.99 -173.46)" style="fill:#fff"/><path d="M487.24,186.3h7.5l8.1,23.16H503l7.86-23.16H518L505.9,219q-.84,2.1-1.65,4a14.39,14.39,0,0,1-2,3.39,8.56,8.56,0,0,1-2.91,2.34,9.92,9.92,0,0,1-4.44.87,31.13,31.13,0,0,1-4.74-.36V223.5q.84.12,1.62.27a8.56,8.56,0,0,0,1.62.15,5.58,5.58,0,0,0,2-.3,3.27,3.27,0,0,0,1.29-.87,5.4,5.4,0,0,0,.87-1.35,13.21,13.21,0,0,0,.66-1.8l.78-2.4Z" transform="translate(-198.99 -173.46)" style="fill:#fff"/><path d="M525.9,207.36a5.15,5.15,0,0,0,2.28,4.2,9,9,0,0,0,4.74,1.2,18.31,18.31,0,0,0,2.19-.15,9.53,9.53,0,0,0,2.31-.57,4.35,4.35,0,0,0,1.77-1.23,3,3,0,0,0,.63-2.13,3,3,0,0,0-1-2.16,6.65,6.65,0,0,0-2.31-1.35,22.38,22.38,0,0,0-3.21-.87q-1.8-.36-3.66-.78a34.35,34.35,0,0,1-3.69-1,11.91,11.91,0,0,1-3.18-1.62,7.49,7.49,0,0,1-2.25-2.61,8.34,8.34,0,0,1-.84-3.93,7.05,7.05,0,0,1,1.23-4.23,9.43,9.43,0,0,1,3.12-2.76,13.59,13.59,0,0,1,4.2-1.47,24.67,24.67,0,0,1,4.41-.42,20.18,20.18,0,0,1,4.59.51,12.47,12.47,0,0,1,4,1.65,9.69,9.69,0,0,1,2.94,3,10.28,10.28,0,0,1,1.47,4.41H538.5a4.26,4.26,0,0,0-2.25-3.3,9.34,9.34,0,0,0-4-.84,14.49,14.49,0,0,0-1.71.12,7.91,7.91,0,0,0-1.86.45,3.91,3.91,0,0,0-1.47,1,2.29,2.29,0,0,0-.6,1.65,2.61,2.61,0,0,0,.87,2,6.88,6.88,0,0,0,2.28,1.29,22.38,22.38,0,0,0,3.21.87q1.8.36,3.72.78t3.66,1a11.8,11.8,0,0,1,3.21,1.62,7.87,7.87,0,0,1,2.28,2.58,7.79,7.79,0,0,1,.87,3.84,8.34,8.34,0,0,1-1.26,4.68,10,10,0,0,1-3.27,3.12,14.87,14.87,0,0,1-4.47,1.74,22.62,22.62,0,0,1-4.86.54,21.15,21.15,0,0,1-5.43-.66,12.66,12.66,0,0,1-4.32-2,9.71,9.71,0,0,1-2.88-3.36,10.69,10.69,0,0,1-1.11-4.77Z" transform="translate(-198.99 -173.46)" style="fill:#fff"/><path d="M548.18,186.3h5.16V177h6.84v9.3h6.18v5.1h-6.18V208a16.52,16.52,0,0,0,.09,1.86,3.21,3.21,0,0,0,.42,1.32,2,2,0,0,0,1,.81,4.87,4.87,0,0,0,1.8.27q.72,0,1.44,0a7.15,7.15,0,0,0,1.44-.21v5.28l-2.22.24a20.09,20.09,0,0,1-2.22.12,15.14,15.14,0,0,1-4.35-.51,5.81,5.81,0,0,1-2.58-1.5,5.18,5.18,0,0,1-1.26-2.49,18.74,18.74,0,0,1-.39-3.42V191.4h-5.16Z" transform="translate(-198.99 -173.46)" style="fill:#fff"/><path d="M575.07,203.58a11.91,11.91,0,0,0,.51,3.48,8.58,8.58,0,0,0,1.53,2.94,7.37,7.37,0,0,0,2.58,2,8.51,8.51,0,0,0,3.72.75,8.22,8.22,0,0,0,4.83-1.29A7.63,7.63,0,0,0,591,207.6h6.48a12.86,12.86,0,0,1-5,7.83,13.73,13.73,0,0,1-4.17,2,16.79,16.79,0,0,1-4.83.69,16.42,16.42,0,0,1-6.48-1.2,13.4,13.4,0,0,1-4.77-3.36,14.26,14.26,0,0,1-2.94-5.16,21,21,0,0,1-1-6.6,18.67,18.67,0,0,1,1-6.27,16.05,16.05,0,0,1,3-5.22,14.07,14.07,0,0,1,11-4.89A13.9,13.9,0,0,1,589.8,187a14.42,14.42,0,0,1,4.83,4,16.4,16.4,0,0,1,2.79,5.79,17.75,17.75,0,0,1,.45,6.75Zm16-4.5a11,11,0,0,0-.69-3.12,8.31,8.31,0,0,0-1.56-2.61,7.73,7.73,0,0,0-2.4-1.8,7.07,7.07,0,0,0-3.15-.69,8.22,8.22,0,0,0-3.27.63,7.48,7.48,0,0,0-2.52,1.74,8.61,8.61,0,0,0-1.68,2.61,9.11,9.11,0,0,0-.69,3.24Z" transform="translate(-198.99 -173.46)" style="fill:#fff"/><path d="M602.53,186.3H609v4.32h.18a17.56,17.56,0,0,1,1.68-2.1,9.17,9.17,0,0,1,2-1.62,10.17,10.17,0,0,1,2.55-1.05,12.66,12.66,0,0,1,3.3-.39,11.24,11.24,0,0,1,5.25,1.26,7.13,7.13,0,0,1,3.45,3.9,13.81,13.81,0,0,1,4-3.78,10.84,10.84,0,0,1,5.7-1.38q4.92,0,7.65,2.4t2.73,8v21.42h-6.84V199.2q0-1.86-.12-3.39a6.92,6.92,0,0,0-.69-2.64,3.92,3.92,0,0,0-1.71-1.71,6.76,6.76,0,0,0-3.12-.6q-3.48,0-5,2.16a10.33,10.33,0,0,0-1.56,6.12v18.18h-6.84V197.4a8.44,8.44,0,0,0-1.17-4.89q-1.17-1.65-4.29-1.65a6.28,6.28,0,0,0-2.55.54,6.36,6.36,0,0,0-2.16,1.56,7.81,7.81,0,0,0-1.5,2.52,9.58,9.58,0,0,0-.57,3.42v18.42h-6.84Z" transform="translate(-198.99 -173.46)" style="fill:#fff"/><path d="M659,207.36a5.15,5.15,0,0,0,2.28,4.2,9,9,0,0,0,4.74,1.2,18.31,18.31,0,0,0,2.19-.15,9.53,9.53,0,0,0,2.31-.57,4.35,4.35,0,0,0,1.77-1.23,3,3,0,0,0,.63-2.13,3,3,0,0,0-1-2.16,6.65,6.65,0,0,0-2.31-1.35,22.38,22.38,0,0,0-3.21-.87q-1.8-.36-3.66-.78a34.35,34.35,0,0,1-3.69-1,11.91,11.91,0,0,1-3.18-1.62,7.49,7.49,0,0,1-2.25-2.61,8.34,8.34,0,0,1-.84-3.93,7.05,7.05,0,0,1,1.23-4.23,9.43,9.43,0,0,1,3.12-2.76,13.59,13.59,0,0,1,4.2-1.47,24.67,24.67,0,0,1,4.41-.42,20.18,20.18,0,0,1,4.59.51,12.47,12.47,0,0,1,4,1.65,9.69,9.69,0,0,1,2.94,3,10.28,10.28,0,0,1,1.47,4.41h-7.14a4.26,4.26,0,0,0-2.25-3.3,9.34,9.34,0,0,0-4-.84,14.49,14.49,0,0,0-1.71.12,7.91,7.91,0,0,0-1.86.45,3.91,3.91,0,0,0-1.47,1,2.29,2.29,0,0,0-.6,1.65,2.61,2.61,0,0,0,.87,2,6.88,6.88,0,0,0,2.28,1.29,22.38,22.38,0,0,0,3.21.87q1.8.36,3.72.78t3.66,1a11.8,11.8,0,0,1,3.21,1.62,7.87,7.87,0,0,1,2.28,2.58,7.79,7.79,0,0,1,.87,3.84,8.34,8.34,0,0,1-1.26,4.68,10,10,0,0,1-3.27,3.12,14.87,14.87,0,0,1-4.47,1.74,22.62,22.62,0,0,1-4.86.54,21.15,21.15,0,0,1-5.43-.66,12.66,12.66,0,0,1-4.32-2,9.71,9.71,0,0,1-2.88-3.36,10.69,10.69,0,0,1-1.11-4.77Z" transform="translate(-198.99 -173.46)" style="fill:#fff"/></svg>